PathFileType	4	(X/Y/Z)	C:\Users\86182\Documents\cortex\Trimmed_M1_L8.trc
DataRate	CameraRate	NumFrames	NumMarkers	Units	OrigDataRate	OrigDataStartFrame	OrigNumFrames
100.00	100.00	       154	2	mm	100.00	571	       951
Frame#	Time	gripper			box			
		X1	Y1	Z1	X2	Y2	Z2	

571	5.700	198.61021	195.00301	293.04703	199.67082	194.38113	153.80879	
572	5.710	198.57990	194.98997	293.04178	199.70683	194.38373	153.82138	
573	5.720	198.57233	194.99803	293.03421	199.70168	194.38257	153.79347	
574	5.730	198.53947	194.97089	293.02063	199.65445	194.36589	153.82750	
575	5.740	198.57321	195.00243	293.03018	199.66814	194.38940	153.83795	
576	5.750	198.51984	194.95717	293.02423	199.66974	194.37497	153.81873	
577	5.760	198.56367	194.98431	293.03738	199.63185	194.36703	153.83253	
578	5.770	198.57195	195.01463	293.02887	199.65349	194.38342	153.84172	
579	5.780	198.52266	194.96796	293.02856	199.64384	194.37204	153.80556	
580	5.790	198.54254	194.97324	293.02054	199.61351	194.37059	153.82068	
581	5.800	198.47377	194.99699	293.03403	199.66273	194.39311	153.84042	
582	5.810	198.51051	194.97606	293.03207	199.65465	194.39314	153.83502	
583	5.820	198.51224	195.01059	293.05307	199.66203	194.40939	153.82744	
584	5.830	198.51033	194.97124	293.02667	199.64040	194.40746	153.83965	
585	5.840	198.46410	194.98044	293.01999	199.63359	194.37984	153.82094	
586	5.850	198.51578	195.00960	293.04492	199.60394	194.37798	153.82780	
587	5.860	198.50960	194.98024	293.01648	199.62550	194.39435	153.83687	
588	5.870	198.52058	195.00215	293.04358	199.63817	194.37080	153.84720	
589	5.880	198.50787	194.97372	293.02225	199.62553	194.38469	153.84586	
590	5.890	198.52463	194.97443	293.02084	199.67232	194.39886	153.82750	
591	5.900	198.56464	195.00606	293.02658	199.65605	194.39677	153.84061	
592	5.910	198.53076	195.00041	293.03488	199.68558	194.39912	153.84206	
593	5.920	198.58279	195.00969	293.03519	199.63443	194.38379	153.83470	
594	5.930	198.56482	195.01288	293.05350	199.67461	194.42041	153.84959	
595	5.940	198.56326	195.01949	293.03320	199.68797	194.41873	153.82857	
596	5.950	198.55367	195.00140	293.01108	199.71086	194.43460	153.82111	
597	5.960	198.51093	195.01016	293.03281	199.66948	194.40273	153.83452	
598	5.970	198.53244	194.99559	293.03253	199.66812	194.41235	153.82324	
599	5.980	198.53078	194.98595	293.04053	199.64159	194.37976	153.82626	
600	5.990	198.46227	194.99948	293.02969	199.61467	194.39336	153.80841	
601	6.000	198.51616	194.99838	293.03253	199.62497	194.38156	153.85086	
602	6.010	198.51839	194.97707	293.03555	199.60722	194.36887	153.85175	
603	6.020	198.44275	194.94269	293.02124	199.61699	194.38162	153.84546	
604	6.030	198.46501	194.98936	293.02896	199.60597	194.36880	153.84947	
605	6.040	198.54901	195.00900	293.04117	199.61435	194.38766	153.82870	
606	6.050	198.51010	194.99641	293.03265	199.61282	194.37221	153.85588	
607	6.060	198.53909	195.00558	293.04361	199.61884	194.37512	153.85172	
608	6.070	198.46045	194.94223	293.03748	199.60628	194.38419	153.82018	
609	6.080	198.53604	194.99268	293.03262	199.60974	194.36897	153.85631	
610	6.090	198.53677	195.01324	293.04642	199.63509	194.36757	153.84764	
611	6.100	198.54546	195.00603	293.05096	199.65471	194.40143	153.79913	
612	6.110	198.48676	194.99634	293.04333	199.62750	194.39139	153.84642	
613	6.120	198.55246	195.00214	293.04303	199.68678	194.39793	153.80640	
614	6.130	198.51988	195.00395	293.02063	199.63258	194.36746	153.84306	
615	6.140	198.58807	194.99716	293.04227	199.65805	194.39378	153.85022	
616	6.150	198.56508	195.00504	293.04184	199.71300	194.38664	153.81717	
617	6.160	198.59828	195.00720	293.05225	199.68034	194.39529	153.82959	
618	6.170	198.55986	195.00693	293.05399	199.63907	194.37964	153.82173	
619	6.180	198.47778	194.96869	293.04544	199.63423	194.37331	153.82487	
620	6.190	198.52208	195.00424	293.05460	199.62482	194.37457	153.84425	
621	6.200	198.49538	194.99171	293.04044	199.62434	194.37289	153.80692	
622	6.210	198.46526	194.95572	293.03525	199.67894	194.38461	153.81738	
623	6.220	198.50911	194.99251	293.04449	199.60893	194.37820	153.83684	
624	6.230	198.49408	194.99101	293.03519	199.61002	194.38437	153.82692	
625	6.240	198.50613	194.98538	293.03122	199.60323	194.36792	153.82628	
626	6.250	198.54987	195.00551	293.03412	199.65532	194.37686	153.84801	
627	6.260	198.47704	194.96806	293.01791	199.67271	194.39487	153.81595	
628	6.270	198.54251	195.01044	293.03320	199.63055	194.38010	153.82465	
629	6.280	198.51320	194.97502	293.00940	199.63112	194.39771	153.84099	
630	6.290	198.52431	194.95297	293.02261	199.66101	194.41496	153.80469	
631	6.300	198.54361	194.99658	293.03720	199.65157	194.37672	153.84116	
632	6.310	198.49493	194.93954	293.01294	199.67719	194.36392	153.80363	
633	6.320	198.50844	194.94781	293.01755	199.65247	194.36806	153.79938	
634	6.330	198.52432	194.98213	293.02646	199.63055	194.38010	153.82465	
635	6.340	198.50638	194.97491	293.01904	199.64215	194.36623	153.82365	
636	6.350	198.55643	194.98732	293.03217	199.63731	194.36684	153.83336	
637	6.360	198.52779	194.96893	293.02298	199.61339	194.36632	153.79892	
638	6.370	198.50533	194.98581	293.04092	199.61525	194.36679	153.81151	
639	6.380	198.56775	194.99762	293.02988	199.62135	194.37523	153.85629	
640	6.390	198.52904	194.97020	293.03537	199.62129	194.37315	153.81061	
641	6.400	198.51215	194.99080	293.03778	199.63103	194.40146	153.83354	
642	6.410	198.55615	195.00259	293.03363	199.69641	194.40138	153.82803	
643	6.420	198.46310	194.98238	293.02896	199.63539	194.36638	153.82060	
644	6.430	198.50092	194.97630	293.02808	199.63101	194.38452	153.84671	
645	6.440	198.45270	194.94470	293.01398	199.62975	194.36852	153.78568	
646	6.450	198.51102	194.97606	293.03076	199.60101	194.36864	153.84041	
647	6.460	198.54819	195.00909	293.01871	199.63361	194.36670	153.82657	
648	6.470	198.49240	194.97089	293.01682	199.60075	194.36781	153.82178	
649	6.480	198.53926	194.98885	293.02570	199.66434	194.36900	153.83012	
650	6.490	198.51889	194.96709	293.02252	199.65604	194.38356	153.84630	
651	6.500	198.54128	194.94753	293.03674	199.65111	194.40004	153.83476	
652	6.510	198.59341	194.99617	293.04483	199.71175	194.42184	153.83754	
653	6.520	198.55014	194.98683	293.03091	199.64828	194.38933	153.82039	
654	6.530	198.52094	194.95520	293.02234	199.64693	194.38573	153.81488	
655	6.540	198.53685	194.99876	293.01950	199.61098	194.36900	153.85860	
656	6.550	198.53331	194.99026	293.03247	199.63554	194.37686	153.83041	
657	6.560	198.54771	194.99690	293.03329	199.65570	194.36595	153.82977	
658	6.570	198.54932	194.99498	293.02982	199.67122	194.39264	153.83752	
659	6.580	198.49370	194.95465	293.02008	199.63043	194.39108	153.84271	
660	6.590	198.54849	194.98634	293.02716	199.60474	194.36877	153.84721	
661	6.600	198.48027	194.96025	293.02902	199.65570	194.36595	153.82977	
662	6.610	198.56961	194.97586	293.04120	199.65025	194.38635	153.82988	
663	6.620	198.52472	194.99702	293.05106	199.62984	194.39764	153.83870	
664	6.630	198.54379	195.00471	293.02377	199.62555	194.36600	153.80269	
665	6.640	198.49532	194.98322	293.01935	199.67229	194.36537	153.83220	
666	6.650	198.55511	195.01210	293.02417	199.60837	194.37511	153.84180	
667	6.660	198.44603	194.95926	293.01248	199.67642	194.37396	153.80301	
668	6.670	198.54422	194.98354	293.02325	199.67416	194.36502	153.82614	
669	6.680	198.55872	195.00629	293.02542	199.69833	194.36311	153.80443	
670	6.690	198.52260	194.99271	293.02652	199.66553	194.36549	153.82910	
671	6.700	198.57251	194.99838	293.03351	199.67972	194.37189	153.83362	
672	6.710	198.52634	194.95706	293.02380	199.67538	194.38533	153.82942	
673	6.720	198.56123	195.00249	293.02859	199.66548	194.38223	153.82678	
674	6.730	198.58006	195.00729	293.03503	199.72981	194.40657	153.82059	
675	6.740	198.56464	195.00606	293.02658	199.68349	194.38530	153.83479	
676	6.750	198.55823	195.01425	293.02344	199.71637	194.40776	153.83342	
677	6.760	198.52740	194.97209	293.02274	199.60504	194.36760	153.82031	
678	6.770	198.53928	194.98596	293.02686	199.65878	194.37268	153.83264	
679	6.780	198.49982	194.97861	293.02591	199.62767	194.38522	153.85872	
680	6.790	198.52672	194.98009	293.02924	199.63731	194.36684	153.83336	
681	6.800	198.55116	195.01553	293.03342	199.66322	194.36626	153.84344	
682	6.810	198.54636	195.00896	293.03204	199.61131	194.37480	153.83809	
683	6.820	198.55902	195.00482	293.02527	199.63083	194.37749	153.84010	
684	6.830	198.54292	194.98810	293.04083	199.64482	194.36713	153.84702	
685	6.840	198.54205	194.97090	293.04153	199.65698	194.39731	153.85121	
686	6.850	198.55946	195.01567	293.02823	199.65878	194.37268	153.83264	
687	6.860	198.55782	195.02048	293.03058	199.70499	194.39735	153.82176	
688	6.870	198.58125	195.01741	293.03641	199.68246	194.41890	153.82773	
689	6.880	198.55290	194.99210	293.02997	199.68361	194.39236	153.84148	
690	6.890	198.58945	195.01357	293.02826	199.66588	194.41934	153.82524	
691	6.900	198.54584	194.97820	293.02927	199.66916	194.39207	153.82463	
692	6.910	198.57309	195.01892	293.03247	199.66885	194.38635	153.84526	
693	6.920	198.57417	194.98013	293.04379	199.63626	194.39804	153.85010	
694	6.930	198.59074	194.99950	293.04245	199.68602	194.38541	153.83939	
695	6.940	198.58553	195.01790	293.03311	199.66853	194.40007	153.84789	
696	6.950	198.56238	195.00739	293.04004	199.65860	194.40663	153.83615	
697	6.960	198.58958	194.99982	293.03723	199.75150	194.41869	153.80746	
698	6.970	198.55557	195.00026	293.02786	199.64532	194.39311	153.82739	
699	6.980	198.58295	195.00005	293.05374	199.65805	194.39378	153.85022	
700	6.990	198.50980	194.99049	293.02777	199.67505	194.39284	153.84439	
701	7.000	198.50584	194.97989	293.01819	199.65256	194.40367	153.84032	
702	7.010	198.49191	194.96783	293.02664	199.65829	194.39951	153.82957	
703	7.020	198.53212	194.97568	293.02518	199.64330	194.37593	153.81702	
704	7.030	198.50777	194.97501	293.02350	199.62820	194.37387	153.83231	
705	7.040	198.51740	194.99623	293.03830	199.65628	194.36559	153.82150	
706	7.050	198.55557	195.00317	293.02670	199.65239	194.37852	153.80914	
707	7.060	198.50386	194.97531	293.01660	199.66209	194.40730	153.85135	
708	7.070	198.52443	194.98592	293.01624	199.67523	194.39499	153.82047	
709	7.080	198.56644	194.99533	293.03418	199.67696	194.40782	153.80881	
710	7.090	198.58012	195.01888	293.03049	199.66119	194.39708	153.84978	
711	7.100	198.54175	195.00856	293.01898	199.68224	194.37199	153.83820	
712	7.110	198.55597	194.99321	293.02808	199.65036	194.36696	153.84784	
713	7.120	198.57465	195.01990	293.02789	199.63760	194.36768	153.85220	
714	7.130	198.55939	194.99248	293.03085	199.67244	194.37592	153.84215	
715	7.140	198.55002	195.00703	293.02295	199.66151	194.38335	153.84714	
716	7.150	198.54404	195.02303	293.02399	199.66505	194.38618	153.83838	
717	7.160	198.55887	195.01538	293.02130	199.63417	194.36980	153.82162	
718	7.170	198.58282	195.01552	293.03293	199.64917	194.37042	153.84886	
719	7.180	198.52933	194.99292	293.02539	199.65036	194.36696	153.84784	
720	7.190	198.50696	194.96088	293.01389	199.61395	194.36873	153.85487	
721	7.200	198.49808	194.95276	293.02573	199.63078	194.35477	153.85437	
722	7.210	198.36499	194.84700	292.98010	199.61951	194.36656	153.81004	
723	7.220	198.37561	194.88029	293.02039	199.61992	194.36816	153.84740	
724	7.230	198.39687	194.92343	293.00815	199.62663	194.36804	153.85052	
